<mxfile host="app.diagrams.net" modified="2021-08-14T12:20:04.350Z" agent="5.0 (Windows NT 10.0; Win64; x64) AppleWebKit/537.36 (KHTML, like Gecko) Chrome/92.0.4515.131 Safari/537.36 Edg/92.0.902.67" etag="WMrMJ1mdrrihjOn0kc79" version="14.9.6" type="github" pages="3">
  <diagram id="C5RBs43oDa-KdzZeNtuy" name="Main">
    <mxGraphModel dx="1154" dy="530" grid="1" gridSize="10" guides="1" tooltips="1" connect="1" arrows="1" fold="1" page="1" pageScale="1" pageWidth="827" pageHeight="1169" math="0" shadow="0">
      <root>
        <mxCell id="WIyWlLk6GJQsqaUBKTNV-0" />
        <mxCell id="WIyWlLk6GJQsqaUBKTNV-1" parent="WIyWlLk6GJQsqaUBKTNV-0" />
        <mxCell id="zkfFHV4jXpPFQw0GAbJ--0" value="用户" style="swimlane;fontStyle=2;align=center;verticalAlign=top;childLayout=stackLayout;horizontal=1;startSize=26;horizontalStack=0;resizeParent=1;resizeLast=0;collapsible=1;marginBottom=0;rounded=0;shadow=0;strokeWidth=1;" parent="WIyWlLk6GJQsqaUBKTNV-1" vertex="1">
          <mxGeometry x="40" y="40" width="160" height="138" as="geometry">
            <mxRectangle x="230" y="140" width="160" height="26" as="alternateBounds" />
          </mxGeometry>
        </mxCell>
        <mxCell id="zkfFHV4jXpPFQw0GAbJ--1" value="Name" style="text;align=left;verticalAlign=top;spacingLeft=4;spacingRight=4;overflow=hidden;rotatable=0;points=[[0,0.5],[1,0.5]];portConstraint=eastwest;" parent="zkfFHV4jXpPFQw0GAbJ--0" vertex="1">
          <mxGeometry y="26" width="160" height="26" as="geometry" />
        </mxCell>
        <mxCell id="zkfFHV4jXpPFQw0GAbJ--2" value="Phone Number" style="text;align=left;verticalAlign=top;spacingLeft=4;spacingRight=4;overflow=hidden;rotatable=0;points=[[0,0.5],[1,0.5]];portConstraint=eastwest;rounded=0;shadow=0;html=0;" parent="zkfFHV4jXpPFQw0GAbJ--0" vertex="1">
          <mxGeometry y="52" width="160" height="26" as="geometry" />
        </mxCell>
        <mxCell id="zkfFHV4jXpPFQw0GAbJ--3" value="Email Address" style="text;align=left;verticalAlign=top;spacingLeft=4;spacingRight=4;overflow=hidden;rotatable=0;points=[[0,0.5],[1,0.5]];portConstraint=eastwest;rounded=0;shadow=0;html=0;" parent="zkfFHV4jXpPFQw0GAbJ--0" vertex="1">
          <mxGeometry y="78" width="160" height="26" as="geometry" />
        </mxCell>
        <mxCell id="zkfFHV4jXpPFQw0GAbJ--4" value="" style="line;html=1;strokeWidth=1;align=left;verticalAlign=middle;spacingTop=-1;spacingLeft=3;spacingRight=3;rotatable=0;labelPosition=right;points=[];portConstraint=eastwest;" parent="zkfFHV4jXpPFQw0GAbJ--0" vertex="1">
          <mxGeometry y="104" width="160" height="8" as="geometry" />
        </mxCell>
        <mxCell id="zkfFHV4jXpPFQw0GAbJ--5" value="Purchase Parking Pass" style="text;align=left;verticalAlign=top;spacingLeft=4;spacingRight=4;overflow=hidden;rotatable=0;points=[[0,0.5],[1,0.5]];portConstraint=eastwest;" parent="zkfFHV4jXpPFQw0GAbJ--0" vertex="1">
          <mxGeometry y="112" width="160" height="26" as="geometry" />
        </mxCell>
        <mxCell id="zkfFHV4jXpPFQw0GAbJ--6" value="商品" style="swimlane;fontStyle=0;align=center;verticalAlign=top;childLayout=stackLayout;horizontal=1;startSize=26;horizontalStack=0;resizeParent=1;resizeLast=0;collapsible=1;marginBottom=0;rounded=0;shadow=0;strokeWidth=1;" parent="WIyWlLk6GJQsqaUBKTNV-1" vertex="1">
          <mxGeometry x="280" y="840" width="160" height="138" as="geometry">
            <mxRectangle x="130" y="380" width="160" height="26" as="alternateBounds" />
          </mxGeometry>
        </mxCell>
        <mxCell id="zkfFHV4jXpPFQw0GAbJ--7" value="ProductID" style="text;align=left;verticalAlign=top;spacingLeft=4;spacingRight=4;overflow=hidden;rotatable=0;points=[[0,0.5],[1,0.5]];portConstraint=eastwest;" parent="zkfFHV4jXpPFQw0GAbJ--6" vertex="1">
          <mxGeometry y="26" width="160" height="26" as="geometry" />
        </mxCell>
        <mxCell id="zkfFHV4jXpPFQw0GAbJ--9" value="" style="line;html=1;strokeWidth=1;align=left;verticalAlign=middle;spacingTop=-1;spacingLeft=3;spacingRight=3;rotatable=0;labelPosition=right;points=[];portConstraint=eastwest;" parent="zkfFHV4jXpPFQw0GAbJ--6" vertex="1">
          <mxGeometry y="52" width="160" height="8" as="geometry" />
        </mxCell>
        <mxCell id="ZaZYIoi37UO9Mad4BEv7-33" style="edgeStyle=orthogonalEdgeStyle;rounded=0;orthogonalLoop=1;jettySize=auto;html=1;exitX=0.5;exitY=0;exitDx=0;exitDy=0;" parent="WIyWlLk6GJQsqaUBKTNV-1" source="zkfFHV4jXpPFQw0GAbJ--13" edge="1">
          <mxGeometry relative="1" as="geometry">
            <mxPoint x="120" y="180" as="targetPoint" />
          </mxGeometry>
        </mxCell>
        <mxCell id="zkfFHV4jXpPFQw0GAbJ--13" value="订单" style="swimlane;fontStyle=0;align=center;verticalAlign=top;childLayout=stackLayout;horizontal=1;startSize=26;horizontalStack=0;resizeParent=1;resizeLast=0;collapsible=1;marginBottom=0;rounded=0;shadow=0;strokeWidth=1;" parent="WIyWlLk6GJQsqaUBKTNV-1" vertex="1">
          <mxGeometry x="40" y="320" width="160" height="70" as="geometry">
            <mxRectangle x="340" y="380" width="170" height="26" as="alternateBounds" />
          </mxGeometry>
        </mxCell>
        <mxCell id="zkfFHV4jXpPFQw0GAbJ--14" value="OrderID" style="text;align=left;verticalAlign=top;spacingLeft=4;spacingRight=4;overflow=hidden;rotatable=0;points=[[0,0.5],[1,0.5]];portConstraint=eastwest;" parent="zkfFHV4jXpPFQw0GAbJ--13" vertex="1">
          <mxGeometry y="26" width="160" height="26" as="geometry" />
        </mxCell>
        <mxCell id="zkfFHV4jXpPFQw0GAbJ--15" value="" style="line;html=1;strokeWidth=1;align=left;verticalAlign=middle;spacingTop=-1;spacingLeft=3;spacingRight=3;rotatable=0;labelPosition=right;points=[];portConstraint=eastwest;" parent="zkfFHV4jXpPFQw0GAbJ--13" vertex="1">
          <mxGeometry y="52" width="160" height="8" as="geometry" />
        </mxCell>
        <mxCell id="zkfFHV4jXpPFQw0GAbJ--17" value="Address" style="swimlane;fontStyle=0;align=center;verticalAlign=top;childLayout=stackLayout;horizontal=1;startSize=26;horizontalStack=0;resizeParent=1;resizeLast=0;collapsible=1;marginBottom=0;rounded=0;shadow=0;strokeWidth=1;" parent="WIyWlLk6GJQsqaUBKTNV-1" vertex="1">
          <mxGeometry x="280" y="320" width="160" height="216" as="geometry">
            <mxRectangle x="550" y="140" width="160" height="26" as="alternateBounds" />
          </mxGeometry>
        </mxCell>
        <mxCell id="zkfFHV4jXpPFQw0GAbJ--18" value="Street" style="text;align=left;verticalAlign=top;spacingLeft=4;spacingRight=4;overflow=hidden;rotatable=0;points=[[0,0.5],[1,0.5]];portConstraint=eastwest;" parent="zkfFHV4jXpPFQw0GAbJ--17" vertex="1">
          <mxGeometry y="26" width="160" height="26" as="geometry" />
        </mxCell>
        <mxCell id="zkfFHV4jXpPFQw0GAbJ--19" value="City" style="text;align=left;verticalAlign=top;spacingLeft=4;spacingRight=4;overflow=hidden;rotatable=0;points=[[0,0.5],[1,0.5]];portConstraint=eastwest;rounded=0;shadow=0;html=0;" parent="zkfFHV4jXpPFQw0GAbJ--17" vertex="1">
          <mxGeometry y="52" width="160" height="26" as="geometry" />
        </mxCell>
        <mxCell id="zkfFHV4jXpPFQw0GAbJ--20" value="State" style="text;align=left;verticalAlign=top;spacingLeft=4;spacingRight=4;overflow=hidden;rotatable=0;points=[[0,0.5],[1,0.5]];portConstraint=eastwest;rounded=0;shadow=0;html=0;" parent="zkfFHV4jXpPFQw0GAbJ--17" vertex="1">
          <mxGeometry y="78" width="160" height="26" as="geometry" />
        </mxCell>
        <mxCell id="zkfFHV4jXpPFQw0GAbJ--21" value="Postal Code" style="text;align=left;verticalAlign=top;spacingLeft=4;spacingRight=4;overflow=hidden;rotatable=0;points=[[0,0.5],[1,0.5]];portConstraint=eastwest;rounded=0;shadow=0;html=0;" parent="zkfFHV4jXpPFQw0GAbJ--17" vertex="1">
          <mxGeometry y="104" width="160" height="26" as="geometry" />
        </mxCell>
        <mxCell id="zkfFHV4jXpPFQw0GAbJ--22" value="Country" style="text;align=left;verticalAlign=top;spacingLeft=4;spacingRight=4;overflow=hidden;rotatable=0;points=[[0,0.5],[1,0.5]];portConstraint=eastwest;rounded=0;shadow=0;html=0;" parent="zkfFHV4jXpPFQw0GAbJ--17" vertex="1">
          <mxGeometry y="130" width="160" height="26" as="geometry" />
        </mxCell>
        <mxCell id="zkfFHV4jXpPFQw0GAbJ--23" value="" style="line;html=1;strokeWidth=1;align=left;verticalAlign=middle;spacingTop=-1;spacingLeft=3;spacingRight=3;rotatable=0;labelPosition=right;points=[];portConstraint=eastwest;" parent="zkfFHV4jXpPFQw0GAbJ--17" vertex="1">
          <mxGeometry y="156" width="160" height="8" as="geometry" />
        </mxCell>
        <mxCell id="zkfFHV4jXpPFQw0GAbJ--24" value="Validate" style="text;align=left;verticalAlign=top;spacingLeft=4;spacingRight=4;overflow=hidden;rotatable=0;points=[[0,0.5],[1,0.5]];portConstraint=eastwest;" parent="zkfFHV4jXpPFQw0GAbJ--17" vertex="1">
          <mxGeometry y="164" width="160" height="26" as="geometry" />
        </mxCell>
        <mxCell id="zkfFHV4jXpPFQw0GAbJ--25" value="Output As Label" style="text;align=left;verticalAlign=top;spacingLeft=4;spacingRight=4;overflow=hidden;rotatable=0;points=[[0,0.5],[1,0.5]];portConstraint=eastwest;" parent="zkfFHV4jXpPFQw0GAbJ--17" vertex="1">
          <mxGeometry y="190" width="160" height="26" as="geometry" />
        </mxCell>
        <mxCell id="ZaZYIoi37UO9Mad4BEv7-0" value="销售商" style="swimlane;fontStyle=0;align=center;verticalAlign=top;childLayout=stackLayout;horizontal=1;startSize=26;horizontalStack=0;resizeParent=1;resizeLast=0;collapsible=1;marginBottom=0;rounded=0;shadow=0;strokeWidth=1;" parent="WIyWlLk6GJQsqaUBKTNV-1" vertex="1">
          <mxGeometry x="520" y="970" width="160" height="86" as="geometry">
            <mxRectangle x="340" y="380" width="170" height="26" as="alternateBounds" />
          </mxGeometry>
        </mxCell>
        <mxCell id="ZaZYIoi37UO9Mad4BEv7-1" value="retailerID" style="text;align=left;verticalAlign=top;spacingLeft=4;spacingRight=4;overflow=hidden;rotatable=0;points=[[0,0.5],[1,0.5]];portConstraint=eastwest;" parent="ZaZYIoi37UO9Mad4BEv7-0" vertex="1">
          <mxGeometry y="26" width="160" height="26" as="geometry" />
        </mxCell>
        <mxCell id="ZaZYIoi37UO9Mad4BEv7-2" value="" style="line;html=1;strokeWidth=1;align=left;verticalAlign=middle;spacingTop=-1;spacingLeft=3;spacingRight=3;rotatable=0;labelPosition=right;points=[];portConstraint=eastwest;" parent="ZaZYIoi37UO9Mad4BEv7-0" vertex="1">
          <mxGeometry y="52" width="160" height="8" as="geometry" />
        </mxCell>
        <mxCell id="ZaZYIoi37UO9Mad4BEv7-35" value="Price" style="text;align=left;verticalAlign=top;spacingLeft=4;spacingRight=4;overflow=hidden;rotatable=0;points=[[0,0.5],[1,0.5]];portConstraint=eastwest;" parent="ZaZYIoi37UO9Mad4BEv7-0" vertex="1">
          <mxGeometry y="60" width="160" height="26" as="geometry" />
        </mxCell>
        <mxCell id="ZaZYIoi37UO9Mad4BEv7-3" value="供应商" style="swimlane;fontStyle=0;align=center;verticalAlign=top;childLayout=stackLayout;horizontal=1;startSize=26;horizontalStack=0;resizeParent=1;resizeLast=0;collapsible=1;marginBottom=0;rounded=0;shadow=0;strokeWidth=1;" parent="WIyWlLk6GJQsqaUBKTNV-1" vertex="1">
          <mxGeometry x="520" y="800" width="160" height="138" as="geometry">
            <mxRectangle x="130" y="380" width="160" height="26" as="alternateBounds" />
          </mxGeometry>
        </mxCell>
        <mxCell id="ZaZYIoi37UO9Mad4BEv7-4" value="VendorID" style="text;align=left;verticalAlign=top;spacingLeft=4;spacingRight=4;overflow=hidden;rotatable=0;points=[[0,0.5],[1,0.5]];portConstraint=eastwest;" parent="ZaZYIoi37UO9Mad4BEv7-3" vertex="1">
          <mxGeometry y="26" width="160" height="26" as="geometry" />
        </mxCell>
        <mxCell id="ZaZYIoi37UO9Mad4BEv7-6" value="" style="line;html=1;strokeWidth=1;align=left;verticalAlign=middle;spacingTop=-1;spacingLeft=3;spacingRight=3;rotatable=0;labelPosition=right;points=[];portConstraint=eastwest;" parent="ZaZYIoi37UO9Mad4BEv7-3" vertex="1">
          <mxGeometry y="52" width="160" height="8" as="geometry" />
        </mxCell>
        <mxCell id="ZaZYIoi37UO9Mad4BEv7-8" value="SupplyPrice" style="text;align=left;verticalAlign=top;spacingLeft=4;spacingRight=4;overflow=hidden;rotatable=0;points=[[0,0.5],[1,0.5]];portConstraint=eastwest;" parent="ZaZYIoi37UO9Mad4BEv7-3" vertex="1">
          <mxGeometry y="60" width="160" height="26" as="geometry" />
        </mxCell>
        <mxCell id="ZaZYIoi37UO9Mad4BEv7-27" value="交易" style="swimlane;fontStyle=0;align=center;verticalAlign=top;childLayout=stackLayout;horizontal=1;startSize=26;horizontalStack=0;resizeParent=1;resizeLast=0;collapsible=1;marginBottom=0;rounded=0;shadow=0;strokeWidth=1;" parent="WIyWlLk6GJQsqaUBKTNV-1" vertex="1">
          <mxGeometry x="280" y="640" width="160" height="70" as="geometry">
            <mxRectangle x="340" y="380" width="170" height="26" as="alternateBounds" />
          </mxGeometry>
        </mxCell>
        <mxCell id="ZaZYIoi37UO9Mad4BEv7-28" value="TradeID" style="text;align=left;verticalAlign=top;spacingLeft=4;spacingRight=4;overflow=hidden;rotatable=0;points=[[0,0.5],[1,0.5]];portConstraint=eastwest;" parent="ZaZYIoi37UO9Mad4BEv7-27" vertex="1">
          <mxGeometry y="26" width="160" height="26" as="geometry" />
        </mxCell>
        <mxCell id="ZaZYIoi37UO9Mad4BEv7-29" value="" style="line;html=1;strokeWidth=1;align=left;verticalAlign=middle;spacingTop=-1;spacingLeft=3;spacingRight=3;rotatable=0;labelPosition=right;points=[];portConstraint=eastwest;" parent="ZaZYIoi37UO9Mad4BEv7-27" vertex="1">
          <mxGeometry y="52" width="160" height="8" as="geometry" />
        </mxCell>
        <mxCell id="ZaZYIoi37UO9Mad4BEv7-30" value="物流" style="swimlane;fontStyle=0;align=center;verticalAlign=top;childLayout=stackLayout;horizontal=1;startSize=26;horizontalStack=0;resizeParent=1;resizeLast=0;collapsible=1;marginBottom=0;rounded=0;shadow=0;strokeWidth=1;" parent="WIyWlLk6GJQsqaUBKTNV-1" vertex="1">
          <mxGeometry x="520" y="320" width="160" height="86" as="geometry">
            <mxRectangle x="340" y="380" width="170" height="26" as="alternateBounds" />
          </mxGeometry>
        </mxCell>
        <mxCell id="ZaZYIoi37UO9Mad4BEv7-31" value="ID" style="text;align=left;verticalAlign=top;spacingLeft=4;spacingRight=4;overflow=hidden;rotatable=0;points=[[0,0.5],[1,0.5]];portConstraint=eastwest;" parent="ZaZYIoi37UO9Mad4BEv7-30" vertex="1">
          <mxGeometry y="26" width="160" height="26" as="geometry" />
        </mxCell>
        <mxCell id="ZaZYIoi37UO9Mad4BEv7-32" value="" style="line;html=1;strokeWidth=1;align=left;verticalAlign=middle;spacingTop=-1;spacingLeft=3;spacingRight=3;rotatable=0;labelPosition=right;points=[];portConstraint=eastwest;" parent="ZaZYIoi37UO9Mad4BEv7-30" vertex="1">
          <mxGeometry y="52" width="160" height="8" as="geometry" />
        </mxCell>
        <mxCell id="ZaZYIoi37UO9Mad4BEv7-34" value="Type" style="text;align=left;verticalAlign=top;spacingLeft=4;spacingRight=4;overflow=hidden;rotatable=0;points=[[0,0.5],[1,0.5]];portConstraint=eastwest;" parent="ZaZYIoi37UO9Mad4BEv7-30" vertex="1">
          <mxGeometry y="60" width="160" height="26" as="geometry" />
        </mxCell>
      </root>
    </mxGraphModel>
  </diagram>
  <diagram id="ppRJbZE1zUrLLBU4oh2O" name="分账与提现">
    <mxGraphModel dx="1629" dy="748" grid="1" gridSize="10" guides="1" tooltips="1" connect="1" arrows="1" fold="1" page="1" pageScale="1" pageWidth="827" pageHeight="1169" math="0" shadow="0">
      <root>
        <mxCell id="nkbMguoL0I-CJLhuNT47-0" />
        <mxCell id="nkbMguoL0I-CJLhuNT47-1" parent="nkbMguoL0I-CJLhuNT47-0" />
        <mxCell id="bCV8c-xbCPkuaAwvmQUm-0" value="商户(分账方)" style="swimlane;fontStyle=0;align=center;verticalAlign=top;childLayout=stackLayout;horizontal=1;startSize=26;horizontalStack=0;resizeParent=1;resizeLast=0;collapsible=1;marginBottom=0;rounded=0;shadow=0;strokeWidth=1;" parent="nkbMguoL0I-CJLhuNT47-1" vertex="1">
          <mxGeometry x="80" y="240" width="160" height="70" as="geometry">
            <mxRectangle x="340" y="380" width="170" height="26" as="alternateBounds" />
          </mxGeometry>
        </mxCell>
        <mxCell id="bCV8c-xbCPkuaAwvmQUm-1" value="ID" style="text;align=left;verticalAlign=top;spacingLeft=4;spacingRight=4;overflow=hidden;rotatable=0;points=[[0,0.5],[1,0.5]];portConstraint=eastwest;" parent="bCV8c-xbCPkuaAwvmQUm-0" vertex="1">
          <mxGeometry y="26" width="160" height="26" as="geometry" />
        </mxCell>
        <mxCell id="bCV8c-xbCPkuaAwvmQUm-2" value="" style="line;html=1;strokeWidth=1;align=left;verticalAlign=middle;spacingTop=-1;spacingLeft=3;spacingRight=3;rotatable=0;labelPosition=right;points=[];portConstraint=eastwest;" parent="bCV8c-xbCPkuaAwvmQUm-0" vertex="1">
          <mxGeometry y="52" width="160" height="8" as="geometry" />
        </mxCell>
        <mxCell id="k3YWIjUh36zjbv6UXWgN-0" value="分账接收方" style="swimlane;fontStyle=0;align=center;verticalAlign=top;childLayout=stackLayout;horizontal=1;startSize=26;horizontalStack=0;resizeParent=1;resizeLast=0;collapsible=1;marginBottom=0;rounded=0;shadow=0;strokeWidth=1;" parent="nkbMguoL0I-CJLhuNT47-1" vertex="1">
          <mxGeometry x="640" y="240" width="160" height="130" as="geometry">
            <mxRectangle x="340" y="380" width="170" height="26" as="alternateBounds" />
          </mxGeometry>
        </mxCell>
        <mxCell id="k3YWIjUh36zjbv6UXWgN-1" value="ID" style="text;align=left;verticalAlign=top;spacingLeft=4;spacingRight=4;overflow=hidden;rotatable=0;points=[[0,0.5],[1,0.5]];portConstraint=eastwest;" parent="k3YWIjUh36zjbv6UXWgN-0" vertex="1">
          <mxGeometry y="26" width="160" height="26" as="geometry" />
        </mxCell>
        <mxCell id="k3YWIjUh36zjbv6UXWgN-2" value="" style="line;html=1;strokeWidth=1;align=left;verticalAlign=middle;spacingTop=-1;spacingLeft=3;spacingRight=3;rotatable=0;labelPosition=right;points=[];portConstraint=eastwest;" parent="k3YWIjUh36zjbv6UXWgN-0" vertex="1">
          <mxGeometry y="52" width="160" height="8" as="geometry" />
        </mxCell>
        <mxCell id="k3YWIjUh36zjbv6UXWgN-15" value="getRatio(&#xa;    user, &#xa;    订单金额与成本&#xa;)" style="text;align=left;verticalAlign=top;spacingLeft=4;spacingRight=4;overflow=hidden;rotatable=0;points=[[0,0.5],[1,0.5]];portConstraint=eastwest;" parent="k3YWIjUh36zjbv6UXWgN-0" vertex="1">
          <mxGeometry y="60" width="160" height="70" as="geometry" />
        </mxCell>
        <mxCell id="k3YWIjUh36zjbv6UXWgN-3" value="待分账资金锁定" style="swimlane;fontStyle=0;align=center;verticalAlign=top;childLayout=stackLayout;horizontal=1;startSize=26;horizontalStack=0;resizeParent=1;resizeLast=0;collapsible=1;marginBottom=0;rounded=0;shadow=0;strokeWidth=1;" parent="nkbMguoL0I-CJLhuNT47-1" vertex="1">
          <mxGeometry x="360" y="250" width="160" height="70" as="geometry">
            <mxRectangle x="340" y="380" width="170" height="26" as="alternateBounds" />
          </mxGeometry>
        </mxCell>
        <mxCell id="k3YWIjUh36zjbv6UXWgN-4" value="待分账资金" style="text;align=left;verticalAlign=top;spacingLeft=4;spacingRight=4;overflow=hidden;rotatable=0;points=[[0,0.5],[1,0.5]];portConstraint=eastwest;" parent="k3YWIjUh36zjbv6UXWgN-3" vertex="1">
          <mxGeometry y="26" width="160" height="26" as="geometry" />
        </mxCell>
        <mxCell id="k3YWIjUh36zjbv6UXWgN-5" value="" style="line;html=1;strokeWidth=1;align=left;verticalAlign=middle;spacingTop=-1;spacingLeft=3;spacingRight=3;rotatable=0;labelPosition=right;points=[];portConstraint=eastwest;" parent="k3YWIjUh36zjbv6UXWgN-3" vertex="1">
          <mxGeometry y="52" width="160" height="8" as="geometry" />
        </mxCell>
        <mxCell id="CXSjVboNsS5uz8w9T-h3-8" style="edgeStyle=orthogonalEdgeStyle;rounded=0;orthogonalLoop=1;jettySize=auto;html=1;entryX=0.5;entryY=0;entryDx=0;entryDy=0;" parent="nkbMguoL0I-CJLhuNT47-1" source="k3YWIjUh36zjbv6UXWgN-6" target="k3YWIjUh36zjbv6UXWgN-9" edge="1">
          <mxGeometry relative="1" as="geometry" />
        </mxCell>
        <mxCell id="k3YWIjUh36zjbv6UXWgN-6" value="已完成订单" style="swimlane;fontStyle=0;align=center;verticalAlign=top;childLayout=stackLayout;horizontal=1;startSize=26;horizontalStack=0;resizeParent=1;resizeLast=0;collapsible=1;marginBottom=0;rounded=0;shadow=0;strokeWidth=1;" parent="nkbMguoL0I-CJLhuNT47-1" vertex="1">
          <mxGeometry x="80" y="40" width="160" height="142" as="geometry">
            <mxRectangle x="340" y="380" width="170" height="26" as="alternateBounds" />
          </mxGeometry>
        </mxCell>
        <mxCell id="k3YWIjUh36zjbv6UXWgN-7" value="OrderID&#xa;店铺(平台自营,入驻店铺,)&#xa;销售商(分销员)" style="text;align=left;verticalAlign=top;spacingLeft=4;spacingRight=4;overflow=hidden;rotatable=0;points=[[0,0.5],[1,0.5]];portConstraint=eastwest;" parent="k3YWIjUh36zjbv6UXWgN-6" vertex="1">
          <mxGeometry y="26" width="160" height="54" as="geometry" />
        </mxCell>
        <mxCell id="k3YWIjUh36zjbv6UXWgN-8" value="" style="line;html=1;strokeWidth=1;align=left;verticalAlign=middle;spacingTop=-1;spacingLeft=3;spacingRight=3;rotatable=0;labelPosition=right;points=[];portConstraint=eastwest;" parent="k3YWIjUh36zjbv6UXWgN-6" vertex="1">
          <mxGeometry y="80" width="160" height="8" as="geometry" />
        </mxCell>
        <mxCell id="CXSjVboNsS5uz8w9T-h3-7" value="isFinished() bool" style="text;align=left;verticalAlign=top;spacingLeft=4;spacingRight=4;overflow=hidden;rotatable=0;points=[[0,0.5],[1,0.5]];portConstraint=eastwest;" parent="k3YWIjUh36zjbv6UXWgN-6" vertex="1">
          <mxGeometry y="88" width="160" height="54" as="geometry" />
        </mxCell>
        <mxCell id="k3YWIjUh36zjbv6UXWgN-13" style="edgeStyle=orthogonalEdgeStyle;rounded=0;orthogonalLoop=1;jettySize=auto;html=1;exitX=0.5;exitY=1;exitDx=0;exitDy=0;" parent="nkbMguoL0I-CJLhuNT47-1" source="k3YWIjUh36zjbv6UXWgN-9" target="k3YWIjUh36zjbv6UXWgN-3" edge="1">
          <mxGeometry relative="1" as="geometry" />
        </mxCell>
        <mxCell id="k3YWIjUh36zjbv6UXWgN-9" value="订单金额及成本" style="swimlane;fontStyle=0;align=center;verticalAlign=top;childLayout=stackLayout;horizontal=1;startSize=26;horizontalStack=0;resizeParent=1;resizeLast=0;collapsible=1;marginBottom=0;rounded=0;shadow=0;strokeWidth=1;" parent="nkbMguoL0I-CJLhuNT47-1" vertex="1">
          <mxGeometry x="360" y="140" width="160" height="86" as="geometry">
            <mxRectangle x="340" y="380" width="170" height="26" as="alternateBounds" />
          </mxGeometry>
        </mxCell>
        <mxCell id="k3YWIjUh36zjbv6UXWgN-10" value="OrderID" style="text;align=left;verticalAlign=top;spacingLeft=4;spacingRight=4;overflow=hidden;rotatable=0;points=[[0,0.5],[1,0.5]];portConstraint=eastwest;" parent="k3YWIjUh36zjbv6UXWgN-9" vertex="1">
          <mxGeometry y="26" width="160" height="26" as="geometry" />
        </mxCell>
        <mxCell id="k3YWIjUh36zjbv6UXWgN-11" value="" style="line;html=1;strokeWidth=1;align=left;verticalAlign=middle;spacingTop=-1;spacingLeft=3;spacingRight=3;rotatable=0;labelPosition=right;points=[];portConstraint=eastwest;" parent="k3YWIjUh36zjbv6UXWgN-9" vertex="1">
          <mxGeometry y="52" width="160" height="8" as="geometry" />
        </mxCell>
        <mxCell id="k3YWIjUh36zjbv6UXWgN-16" value="#计算可分账资金" style="text;align=left;verticalAlign=top;spacingLeft=4;spacingRight=4;overflow=hidden;rotatable=0;points=[[0,0.5],[1,0.5]];portConstraint=eastwest;" parent="k3YWIjUh36zjbv6UXWgN-9" vertex="1">
          <mxGeometry y="60" width="160" height="26" as="geometry" />
        </mxCell>
        <mxCell id="k3YWIjUh36zjbv6UXWgN-14" style="edgeStyle=orthogonalEdgeStyle;rounded=0;orthogonalLoop=1;jettySize=auto;html=1;exitX=1;exitY=0.5;exitDx=0;exitDy=0;" parent="nkbMguoL0I-CJLhuNT47-1" source="k3YWIjUh36zjbv6UXWgN-7" target="k3YWIjUh36zjbv6UXWgN-0" edge="1">
          <mxGeometry relative="1" as="geometry" />
        </mxCell>
        <mxCell id="k3YWIjUh36zjbv6UXWgN-17" value="自营平台供货商" style="swimlane;fontStyle=0;align=center;verticalAlign=top;childLayout=stackLayout;horizontal=1;startSize=26;horizontalStack=0;resizeParent=1;resizeLast=0;collapsible=1;marginBottom=0;rounded=0;shadow=0;strokeWidth=1;" parent="nkbMguoL0I-CJLhuNT47-1" vertex="1">
          <mxGeometry x="880" y="880" width="160" height="86" as="geometry">
            <mxRectangle x="340" y="380" width="170" height="26" as="alternateBounds" />
          </mxGeometry>
        </mxCell>
        <mxCell id="k3YWIjUh36zjbv6UXWgN-18" value="#" style="text;align=left;verticalAlign=top;spacingLeft=4;spacingRight=4;overflow=hidden;rotatable=0;points=[[0,0.5],[1,0.5]];portConstraint=eastwest;" parent="k3YWIjUh36zjbv6UXWgN-17" vertex="1">
          <mxGeometry y="26" width="160" height="26" as="geometry" />
        </mxCell>
        <mxCell id="k3YWIjUh36zjbv6UXWgN-19" value="" style="line;html=1;strokeWidth=1;align=left;verticalAlign=middle;spacingTop=-1;spacingLeft=3;spacingRight=3;rotatable=0;labelPosition=right;points=[];portConstraint=eastwest;" parent="k3YWIjUh36zjbv6UXWgN-17" vertex="1">
          <mxGeometry y="52" width="160" height="8" as="geometry" />
        </mxCell>
        <mxCell id="k3YWIjUh36zjbv6UXWgN-20" value="#" style="text;align=left;verticalAlign=top;spacingLeft=4;spacingRight=4;overflow=hidden;rotatable=0;points=[[0,0.5],[1,0.5]];portConstraint=eastwest;" parent="k3YWIjUh36zjbv6UXWgN-17" vertex="1">
          <mxGeometry y="60" width="160" height="26" as="geometry" />
        </mxCell>
        <mxCell id="k3YWIjUh36zjbv6UXWgN-21" value="供应商" style="swimlane;fontStyle=0;align=center;verticalAlign=top;childLayout=stackLayout;horizontal=1;startSize=26;horizontalStack=0;resizeParent=1;resizeLast=0;collapsible=1;marginBottom=0;rounded=0;shadow=0;strokeWidth=1;" parent="nkbMguoL0I-CJLhuNT47-1" vertex="1">
          <mxGeometry x="880" y="440" width="160" height="86" as="geometry">
            <mxRectangle x="340" y="380" width="170" height="26" as="alternateBounds" />
          </mxGeometry>
        </mxCell>
        <mxCell id="k3YWIjUh36zjbv6UXWgN-22" value="#" style="text;align=left;verticalAlign=top;spacingLeft=4;spacingRight=4;overflow=hidden;rotatable=0;points=[[0,0.5],[1,0.5]];portConstraint=eastwest;" parent="k3YWIjUh36zjbv6UXWgN-21" vertex="1">
          <mxGeometry y="26" width="160" height="26" as="geometry" />
        </mxCell>
        <mxCell id="k3YWIjUh36zjbv6UXWgN-23" value="" style="line;html=1;strokeWidth=1;align=left;verticalAlign=middle;spacingTop=-1;spacingLeft=3;spacingRight=3;rotatable=0;labelPosition=right;points=[];portConstraint=eastwest;" parent="k3YWIjUh36zjbv6UXWgN-21" vertex="1">
          <mxGeometry y="52" width="160" height="8" as="geometry" />
        </mxCell>
        <mxCell id="k3YWIjUh36zjbv6UXWgN-24" value="#" style="text;align=left;verticalAlign=top;spacingLeft=4;spacingRight=4;overflow=hidden;rotatable=0;points=[[0,0.5],[1,0.5]];portConstraint=eastwest;" parent="k3YWIjUh36zjbv6UXWgN-21" vertex="1">
          <mxGeometry y="60" width="160" height="26" as="geometry" />
        </mxCell>
        <mxCell id="k3YWIjUh36zjbv6UXWgN-25" value="分销员" style="swimlane;fontStyle=0;align=center;verticalAlign=top;childLayout=stackLayout;horizontal=1;startSize=26;horizontalStack=0;resizeParent=1;resizeLast=0;collapsible=1;marginBottom=0;rounded=0;shadow=0;strokeWidth=1;" parent="nkbMguoL0I-CJLhuNT47-1" vertex="1">
          <mxGeometry x="880" y="200" width="160" height="86" as="geometry">
            <mxRectangle x="340" y="380" width="170" height="26" as="alternateBounds" />
          </mxGeometry>
        </mxCell>
        <mxCell id="k3YWIjUh36zjbv6UXWgN-26" value="#" style="text;align=left;verticalAlign=top;spacingLeft=4;spacingRight=4;overflow=hidden;rotatable=0;points=[[0,0.5],[1,0.5]];portConstraint=eastwest;" parent="k3YWIjUh36zjbv6UXWgN-25" vertex="1">
          <mxGeometry y="26" width="160" height="26" as="geometry" />
        </mxCell>
        <mxCell id="k3YWIjUh36zjbv6UXWgN-27" value="" style="line;html=1;strokeWidth=1;align=left;verticalAlign=middle;spacingTop=-1;spacingLeft=3;spacingRight=3;rotatable=0;labelPosition=right;points=[];portConstraint=eastwest;" parent="k3YWIjUh36zjbv6UXWgN-25" vertex="1">
          <mxGeometry y="52" width="160" height="8" as="geometry" />
        </mxCell>
        <mxCell id="k3YWIjUh36zjbv6UXWgN-28" value="#" style="text;align=left;verticalAlign=top;spacingLeft=4;spacingRight=4;overflow=hidden;rotatable=0;points=[[0,0.5],[1,0.5]];portConstraint=eastwest;" parent="k3YWIjUh36zjbv6UXWgN-25" vertex="1">
          <mxGeometry y="60" width="160" height="26" as="geometry" />
        </mxCell>
        <mxCell id="k3YWIjUh36zjbv6UXWgN-29" value="平台" style="swimlane;fontStyle=0;align=center;verticalAlign=top;childLayout=stackLayout;horizontal=1;startSize=26;horizontalStack=0;resizeParent=1;resizeLast=0;collapsible=1;marginBottom=0;rounded=0;shadow=0;strokeWidth=1;" parent="nkbMguoL0I-CJLhuNT47-1" vertex="1">
          <mxGeometry x="880" y="710" width="160" height="86" as="geometry">
            <mxRectangle x="340" y="380" width="170" height="26" as="alternateBounds" />
          </mxGeometry>
        </mxCell>
        <mxCell id="k3YWIjUh36zjbv6UXWgN-30" value="#" style="text;align=left;verticalAlign=top;spacingLeft=4;spacingRight=4;overflow=hidden;rotatable=0;points=[[0,0.5],[1,0.5]];portConstraint=eastwest;" parent="k3YWIjUh36zjbv6UXWgN-29" vertex="1">
          <mxGeometry y="26" width="160" height="26" as="geometry" />
        </mxCell>
        <mxCell id="k3YWIjUh36zjbv6UXWgN-31" value="" style="line;html=1;strokeWidth=1;align=left;verticalAlign=middle;spacingTop=-1;spacingLeft=3;spacingRight=3;rotatable=0;labelPosition=right;points=[];portConstraint=eastwest;" parent="k3YWIjUh36zjbv6UXWgN-29" vertex="1">
          <mxGeometry y="52" width="160" height="8" as="geometry" />
        </mxCell>
        <mxCell id="k3YWIjUh36zjbv6UXWgN-32" value="#" style="text;align=left;verticalAlign=top;spacingLeft=4;spacingRight=4;overflow=hidden;rotatable=0;points=[[0,0.5],[1,0.5]];portConstraint=eastwest;" parent="k3YWIjUh36zjbv6UXWgN-29" vertex="1">
          <mxGeometry y="60" width="160" height="26" as="geometry" />
        </mxCell>
        <mxCell id="CXSjVboNsS5uz8w9T-h3-1" value="&lt;h1&gt;# 分账金额&lt;/h1&gt;&lt;p&gt;&lt;b&gt;# 自营平台商品&lt;/b&gt;&lt;/p&gt;&lt;p&gt;&amp;nbsp;(∑ (商品成交金额&amp;nbsp; - 商品裸价 - 税费) - 运费) * 分佣比例&lt;/p&gt;&lt;p&gt;&lt;b&gt;# 门店商品&lt;/b&gt;&lt;/p&gt;∑商品成交金额 * 分佣比例&lt;br&gt;&lt;br&gt;&lt;b&gt;# 供应商商品&lt;/b&gt;&lt;br&gt;无" style="text;html=1;strokeColor=none;fillColor=none;spacing=5;spacingTop=-20;whiteSpace=wrap;overflow=hidden;rounded=0;" parent="nkbMguoL0I-CJLhuNT47-1" vertex="1">
          <mxGeometry x="1080" y="200" width="310" height="200" as="geometry" />
        </mxCell>
        <mxCell id="aIbT1PeUMrJO-R286b0w-0" value="&lt;h1&gt;# 分账金额&lt;/h1&gt;&lt;p&gt;&lt;b&gt;# 自营平台商品&lt;/b&gt;&lt;/p&gt;&lt;p&gt;无&lt;/p&gt;&lt;p&gt;&lt;b&gt;# 门店商品&lt;/b&gt;&lt;/p&gt;无&lt;br&gt;&lt;br&gt;&lt;b&gt;# 供应商商品&lt;/b&gt;&lt;br&gt;供应商价" style="text;html=1;strokeColor=none;fillColor=none;spacing=5;spacingTop=-20;whiteSpace=wrap;overflow=hidden;rounded=0;" parent="nkbMguoL0I-CJLhuNT47-1" vertex="1">
          <mxGeometry x="1080" y="440" width="310" height="200" as="geometry" />
        </mxCell>
      </root>
    </mxGraphModel>
  </diagram>
  <diagram id="15qAbW7iFUF6H5ls1C1p" name="骑手配送">
    <mxGraphModel dx="2308" dy="1060" grid="1" gridSize="10" guides="1" tooltips="1" connect="1" arrows="1" fold="1" page="1" pageScale="1" pageWidth="827" pageHeight="1169" math="0" shadow="0">
      <root>
        <mxCell id="_-4UiE79gsEB8M69upnu-0" />
        <mxCell id="_-4UiE79gsEB8M69upnu-1" parent="_-4UiE79gsEB8M69upnu-0" />
        <mxCell id="_-4UiE79gsEB8M69upnu-11" value="交互" style="text;html=1;strokeColor=none;fillColor=none;align=left;verticalAlign=middle;whiteSpace=wrap;rounded=0;fontStyle=1;fontSize=24;" parent="_-4UiE79gsEB8M69upnu-1" vertex="1">
          <mxGeometry x="70" y="100" width="70" height="20" as="geometry" />
        </mxCell>
        <mxCell id="_-4UiE79gsEB8M69upnu-14" value="接入与管理" style="text;html=1;strokeColor=none;fillColor=none;align=left;verticalAlign=middle;whiteSpace=wrap;rounded=0;fontStyle=1;fontSize=24;" parent="_-4UiE79gsEB8M69upnu-1" vertex="1">
          <mxGeometry x="70" y="10" width="140" height="20" as="geometry" />
        </mxCell>
        <mxCell id="vlN4sAGhAGOXdmq7U4Os-28" value="主流程" style="text;html=1;strokeColor=none;fillColor=none;align=left;verticalAlign=middle;whiteSpace=wrap;rounded=0;fontSize=18;fontStyle=1" vertex="1" parent="_-4UiE79gsEB8M69upnu-1">
          <mxGeometry x="70" y="150" width="90" height="20" as="geometry" />
        </mxCell>
        <mxCell id="vlN4sAGhAGOXdmq7U4Os-60" value="" style="group" vertex="1" connectable="0" parent="_-4UiE79gsEB8M69upnu-1">
          <mxGeometry x="1370" y="50" width="660" height="450.01" as="geometry" />
        </mxCell>
        <mxCell id="vlN4sAGhAGOXdmq7U4Os-80" value="" style="group" vertex="1" connectable="0" parent="_-4UiE79gsEB8M69upnu-1">
          <mxGeometry x="70" y="200" width="1160" height="1090" as="geometry" />
        </mxCell>
        <mxCell id="vlN4sAGhAGOXdmq7U4Os-68" value="Pool" style="swimlane;childLayout=stackLayout;resizeParent=1;resizeParentMax=0;startSize=20;fontSize=18;align=left;container=0;" vertex="1" parent="vlN4sAGhAGOXdmq7U4Os-80">
          <mxGeometry width="1160" height="1090.0000000000002" as="geometry" />
        </mxCell>
        <mxCell id="vlN4sAGhAGOXdmq7U4Os-72" value="聚合配送平台" style="swimlane;startSize=20;" vertex="1" parent="vlN4sAGhAGOXdmq7U4Os-80">
          <mxGeometry x="696" y="45.41666666666667" width="232" height="1044.5833333333335" as="geometry" />
        </mxCell>
        <mxCell id="vlN4sAGhAGOXdmq7U4Os-85" value="发货单" style="rounded=1;whiteSpace=wrap;html=1;fontSize=18;align=center;fillColor=#ffe6cc;strokeColor=#d79b00;" vertex="1" parent="vlN4sAGhAGOXdmq7U4Os-72">
          <mxGeometry x="56" y="154.58333333333331" width="120" height="60" as="geometry" />
        </mxCell>
        <mxCell id="vlN4sAGhAGOXdmq7U4Os-73" value="骑手" style="swimlane;startSize=20;" vertex="1" parent="vlN4sAGhAGOXdmq7U4Os-80">
          <mxGeometry x="928" y="45.41666666666667" width="232" height="1044.5833333333335" as="geometry" />
        </mxCell>
        <mxCell id="vlN4sAGhAGOXdmq7U4Os-69" value="用户" style="swimlane;startSize=20;" vertex="1" parent="vlN4sAGhAGOXdmq7U4Os-80">
          <mxGeometry y="45.41666666666667" width="232" height="1044.5833333333335" as="geometry" />
        </mxCell>
        <mxCell id="vlN4sAGhAGOXdmq7U4Os-81" value="下单" style="strokeWidth=2;html=1;shape=mxgraph.flowchart.start_2;whiteSpace=wrap;fontSize=18;align=center;" vertex="1" parent="vlN4sAGhAGOXdmq7U4Os-69">
          <mxGeometry x="66" y="84.58333333333331" width="100" height="100" as="geometry" />
        </mxCell>
        <mxCell id="vlN4sAGhAGOXdmq7U4Os-70" value="平台" style="swimlane;startSize=20;" vertex="1" parent="vlN4sAGhAGOXdmq7U4Os-80">
          <mxGeometry x="232" y="45.41666666666667" width="232" height="1044.5833333333335" as="geometry" />
        </mxCell>
        <mxCell id="vlN4sAGhAGOXdmq7U4Os-82" value="订单" style="rounded=0;whiteSpace=wrap;html=1;fontSize=18;align=center;" vertex="1" parent="vlN4sAGhAGOXdmq7U4Os-70">
          <mxGeometry x="52" y="104.58333333333331" width="120" height="60" as="geometry" />
        </mxCell>
        <mxCell id="vlN4sAGhAGOXdmq7U4Os-71" value="商家" style="swimlane;startSize=20;" vertex="1" parent="vlN4sAGhAGOXdmq7U4Os-80">
          <mxGeometry x="464" y="45.41666666666667" width="232" height="1044.5833333333335" as="geometry" />
        </mxCell>
        <mxCell id="vlN4sAGhAGOXdmq7U4Os-83" value="新订单通知" style="rounded=1;whiteSpace=wrap;html=1;fontSize=18;align=center;fillColor=#ffe6cc;strokeColor=#d79b00;" vertex="1" parent="vlN4sAGhAGOXdmq7U4Os-71">
          <mxGeometry x="34" y="104.58333333333331" width="120" height="60" as="geometry" />
        </mxCell>
        <mxCell id="vlN4sAGhAGOXdmq7U4Os-87" style="edgeStyle=orthogonalEdgeStyle;rounded=0;orthogonalLoop=1;jettySize=auto;html=1;exitX=1;exitY=0.5;exitDx=0;exitDy=0;exitPerimeter=0;entryX=0;entryY=0.5;entryDx=0;entryDy=0;fontSize=18;align=center;" edge="1" parent="vlN4sAGhAGOXdmq7U4Os-80" source="vlN4sAGhAGOXdmq7U4Os-81" target="vlN4sAGhAGOXdmq7U4Os-82">
          <mxGeometry relative="1" as="geometry" />
        </mxCell>
        <mxCell id="vlN4sAGhAGOXdmq7U4Os-88" style="edgeStyle=orthogonalEdgeStyle;rounded=0;orthogonalLoop=1;jettySize=auto;html=1;exitX=1;exitY=0.5;exitDx=0;exitDy=0;entryX=0;entryY=0.5;entryDx=0;entryDy=0;fontSize=18;align=center;" edge="1" parent="vlN4sAGhAGOXdmq7U4Os-80" source="vlN4sAGhAGOXdmq7U4Os-82" target="vlN4sAGhAGOXdmq7U4Os-83">
          <mxGeometry relative="1" as="geometry" />
        </mxCell>
        <object label="" id="vlN4sAGhAGOXdmq7U4Os-94">
          <mxCell style="edgeStyle=orthogonalEdgeStyle;rounded=0;orthogonalLoop=1;jettySize=auto;html=1;exitX=1;exitY=0.5;exitDx=0;exitDy=0;entryX=0;entryY=0.5;entryDx=0;entryDy=0;fontSize=18;align=center;" edge="1" parent="vlN4sAGhAGOXdmq7U4Os-80" source="vlN4sAGhAGOXdmq7U4Os-83" target="vlN4sAGhAGOXdmq7U4Os-85">
            <mxGeometry relative="1" as="geometry">
              <Array as="points">
                <mxPoint x="690" y="180" />
                <mxPoint x="690" y="230" />
              </Array>
            </mxGeometry>
          </mxCell>
        </object>
        <mxCell id="vlN4sAGhAGOXdmq7U4Os-101" value="商家发起" style="edgeLabel;html=1;align=center;verticalAlign=middle;resizable=0;points=[];fontSize=12;labelBackgroundColor=#67AB9F;" vertex="1" connectable="0" parent="vlN4sAGhAGOXdmq7U4Os-94">
          <mxGeometry x="-0.6504" relative="1" as="geometry">
            <mxPoint as="offset" />
          </mxGeometry>
        </mxCell>
        <mxCell id="vlN4sAGhAGOXdmq7U4Os-105" style="edgeStyle=orthogonalEdgeStyle;rounded=0;orthogonalLoop=1;jettySize=auto;html=1;exitX=0.5;exitY=1;exitDx=0;exitDy=0;fontSize=12;align=center;" edge="1" parent="vlN4sAGhAGOXdmq7U4Os-80" source="vlN4sAGhAGOXdmq7U4Os-82">
          <mxGeometry relative="1" as="geometry">
            <mxPoint x="750" y="230" as="targetPoint" />
            <Array as="points">
              <mxPoint x="344" y="340" />
              <mxPoint x="690" y="340" />
              <mxPoint x="690" y="230" />
            </Array>
          </mxGeometry>
        </mxCell>
        <mxCell id="vlN4sAGhAGOXdmq7U4Os-106" value="系统自动发起" style="edgeLabel;html=1;align=center;verticalAlign=middle;resizable=0;points=[];fontSize=12;labelBackgroundColor=#67AB9F;" vertex="1" connectable="0" parent="vlN4sAGhAGOXdmq7U4Os-105">
          <mxGeometry x="0.3401" y="1" relative="1" as="geometry">
            <mxPoint as="offset" />
          </mxGeometry>
        </mxCell>
        <mxCell id="PhDmDFMkUCYth2lxqwMc-2" style="edgeStyle=orthogonalEdgeStyle;rounded=0;orthogonalLoop=1;jettySize=auto;html=1;fontSize=12;fontColor=#FF6666;align=center;" edge="1" parent="_-4UiE79gsEB8M69upnu-1" source="vlN4sAGhAGOXdmq7U4Os-86" target="vlN4sAGhAGOXdmq7U4Os-110">
          <mxGeometry relative="1" as="geometry" />
        </mxCell>
        <mxCell id="vlN4sAGhAGOXdmq7U4Os-86" value="接单" style="rounded=1;whiteSpace=wrap;html=1;fontSize=18;align=center;fillColor=#ffe6cc;strokeColor=#d79b00;" vertex="1" parent="_-4UiE79gsEB8M69upnu-1">
          <mxGeometry x="1050" y="640" width="120" height="60" as="geometry" />
        </mxCell>
        <mxCell id="vlN4sAGhAGOXdmq7U4Os-97" style="edgeStyle=orthogonalEdgeStyle;rounded=0;orthogonalLoop=1;jettySize=auto;html=1;fontSize=18;align=center;" edge="1" parent="_-4UiE79gsEB8M69upnu-1" source="vlN4sAGhAGOXdmq7U4Os-89" target="vlN4sAGhAGOXdmq7U4Os-85">
          <mxGeometry relative="1" as="geometry">
            <Array as="points">
              <mxPoint x="760" y="470" />
              <mxPoint x="760" y="430" />
            </Array>
          </mxGeometry>
        </mxCell>
        <mxCell id="vlN4sAGhAGOXdmq7U4Os-103" value="商家发起" style="edgeLabel;html=1;align=center;verticalAlign=middle;resizable=0;points=[];fontSize=12;labelBackgroundColor=#67AB9F;" vertex="1" connectable="0" parent="vlN4sAGhAGOXdmq7U4Os-97">
          <mxGeometry x="-0.7661" y="1" relative="1" as="geometry">
            <mxPoint x="11" as="offset" />
          </mxGeometry>
        </mxCell>
        <mxCell id="vlN4sAGhAGOXdmq7U4Os-89" value="配货提醒" style="rounded=1;whiteSpace=wrap;html=1;fontSize=18;align=center;fillColor=#ffe6cc;strokeColor=#d79b00;" vertex="1" parent="_-4UiE79gsEB8M69upnu-1">
          <mxGeometry x="571" y="440.01" width="120" height="60" as="geometry" />
        </mxCell>
        <mxCell id="vlN4sAGhAGOXdmq7U4Os-92" style="edgeStyle=orthogonalEdgeStyle;rounded=0;orthogonalLoop=1;jettySize=auto;html=1;exitX=0.5;exitY=1;exitDx=0;exitDy=0;entryX=0;entryY=0.5;entryDx=0;entryDy=0;fontSize=18;align=center;" edge="1" parent="_-4UiE79gsEB8M69upnu-1" source="vlN4sAGhAGOXdmq7U4Os-82" target="vlN4sAGhAGOXdmq7U4Os-89">
          <mxGeometry relative="1" as="geometry" />
        </mxCell>
        <mxCell id="vlN4sAGhAGOXdmq7U4Os-109" style="edgeStyle=orthogonalEdgeStyle;rounded=0;orthogonalLoop=1;jettySize=auto;html=1;exitX=0.5;exitY=1;exitDx=0;exitDy=0;entryX=0;entryY=0.5;entryDx=0;entryDy=0;fontSize=12;fontColor=#FF6666;align=center;" edge="1" parent="_-4UiE79gsEB8M69upnu-1" source="vlN4sAGhAGOXdmq7U4Os-107" target="vlN4sAGhAGOXdmq7U4Os-86">
          <mxGeometry relative="1" as="geometry" />
        </mxCell>
        <mxCell id="vlN4sAGhAGOXdmq7U4Os-107" value="派单" style="rounded=1;whiteSpace=wrap;html=1;fontSize=18;align=center;fillColor=#ffe6cc;strokeColor=#d79b00;" vertex="1" parent="_-4UiE79gsEB8M69upnu-1">
          <mxGeometry x="822" y="555" width="120" height="60" as="geometry" />
        </mxCell>
        <mxCell id="vlN4sAGhAGOXdmq7U4Os-108" style="edgeStyle=orthogonalEdgeStyle;rounded=0;orthogonalLoop=1;jettySize=auto;html=1;fontSize=12;fontColor=#FF6666;align=center;" edge="1" parent="_-4UiE79gsEB8M69upnu-1" source="vlN4sAGhAGOXdmq7U4Os-85" target="vlN4sAGhAGOXdmq7U4Os-107">
          <mxGeometry relative="1" as="geometry" />
        </mxCell>
        <mxCell id="PhDmDFMkUCYth2lxqwMc-3" style="edgeStyle=orthogonalEdgeStyle;rounded=0;orthogonalLoop=1;jettySize=auto;html=1;entryX=0.5;entryY=0;entryDx=0;entryDy=0;fontSize=12;fontColor=#FF6666;align=center;" edge="1" parent="_-4UiE79gsEB8M69upnu-1" source="vlN4sAGhAGOXdmq7U4Os-110" target="vlN4sAGhAGOXdmq7U4Os-113">
          <mxGeometry relative="1" as="geometry" />
        </mxCell>
        <mxCell id="vlN4sAGhAGOXdmq7U4Os-110" value="已出发" style="rounded=1;whiteSpace=wrap;html=1;fontSize=18;align=center;fillColor=#ffe6cc;strokeColor=#d79b00;" vertex="1" parent="_-4UiE79gsEB8M69upnu-1">
          <mxGeometry x="1051" y="750" width="120" height="60" as="geometry" />
        </mxCell>
        <mxCell id="PhDmDFMkUCYth2lxqwMc-4" style="edgeStyle=orthogonalEdgeStyle;rounded=0;orthogonalLoop=1;jettySize=auto;html=1;entryX=0.5;entryY=0;entryDx=0;entryDy=0;fontSize=12;fontColor=#FF6666;align=center;" edge="1" parent="_-4UiE79gsEB8M69upnu-1" source="vlN4sAGhAGOXdmq7U4Os-113" target="PhDmDFMkUCYth2lxqwMc-0">
          <mxGeometry relative="1" as="geometry" />
        </mxCell>
        <mxCell id="vlN4sAGhAGOXdmq7U4Os-113" value="已到店" style="rounded=1;whiteSpace=wrap;html=1;fontSize=18;align=center;fillColor=#ffe6cc;strokeColor=#d79b00;" vertex="1" parent="_-4UiE79gsEB8M69upnu-1">
          <mxGeometry x="1051" y="860" width="120" height="60" as="geometry" />
        </mxCell>
        <mxCell id="PhDmDFMkUCYth2lxqwMc-6" style="edgeStyle=orthogonalEdgeStyle;rounded=0;orthogonalLoop=1;jettySize=auto;html=1;entryX=0.5;entryY=0;entryDx=0;entryDy=0;fontSize=12;fontColor=#FF6666;align=center;" edge="1" parent="_-4UiE79gsEB8M69upnu-1" source="PhDmDFMkUCYth2lxqwMc-0" target="PhDmDFMkUCYth2lxqwMc-1">
          <mxGeometry relative="1" as="geometry" />
        </mxCell>
        <mxCell id="PhDmDFMkUCYth2lxqwMc-0" value="已取货已出发" style="rounded=1;whiteSpace=wrap;html=1;fontSize=18;align=center;fillColor=#ffe6cc;strokeColor=#d79b00;" vertex="1" parent="_-4UiE79gsEB8M69upnu-1">
          <mxGeometry x="1052" y="970" width="120" height="60" as="geometry" />
        </mxCell>
        <mxCell id="PhDmDFMkUCYth2lxqwMc-1" value="已送达" style="rounded=1;whiteSpace=wrap;html=1;fontSize=18;align=center;fillColor=#ffe6cc;strokeColor=#d79b00;" vertex="1" parent="_-4UiE79gsEB8M69upnu-1">
          <mxGeometry x="1052" y="1100" width="120" height="60" as="geometry" />
        </mxCell>
      </root>
    </mxGraphModel>
  </diagram>
</mxfile>
